<svg id="Layer_1" data-name="Layer 1" xmlns="http://www.w3.org/2000/svg" xmlns:xlink="http://www.w3.org/1999/xlink" viewBox="0 0 66 66"><defs><style>.cls-1,.cls-2,.cls-7{fill:none;}.cls-1{clip-rule:evenodd;}.cls-3{clip-path:url(#clip-path);}.cls-4{clip-path:url(#clip-path-2);}.cls-5{clip-path:url(#clip-path-3);}.cls-6{fill:#fafafa;}.cls-7{stroke:#cdcccc;stroke-miterlimit:10;stroke-width:2px;}.cls-8{clip-path:url(#clip-path-6);}.cls-9{fill:#010101;opacity:0.54;}</style><clipPath id="clip-path" transform="translate(-264.5 -312.76)"><path class="cls-1" d="M297.5,377.26a31.5,31.5,0,1,1,31.5-31.5A31.5,31.5,0,0,1,297.5,377.26Zm0,1a32.5,32.5,0,1,0-32.5-32.5A32.5,32.5,0,0,0,297.5,378.26Zm-52.5-85H350v105H245v-105Z"/></clipPath><clipPath id="clip-path-2" transform="translate(-264.5 -312.76)"><circle class="cls-2" cx="297.5" cy="345.76" r="32"/></clipPath><clipPath id="clip-path-3" transform="translate(-264.5 -312.76)"><rect class="cls-2" x="-514.5" y="-536.24" width="1600" height="1500"/></clipPath><clipPath id="clip-path-6" transform="translate(-264.5 -312.76)"><path class="cls-1" d="M305.5,341.76a2,2,0,1,0-2-2,2,2,0,0,0,2,2h0Zm4,14h-24v-20h24v20Zm-2-2v-8l-7.06,3.76-12.94-7.76v12h20Zm-26-22h32v28h-32v-28Z"/></clipPath></defs><title>image</title><g class="cls-3"><g class="cls-4"><g class="cls-5"><circle class="cls-6" cx="33" cy="33" r="32"/></g></g></g><g class="cls-4"><g class="cls-5"><circle class="cls-7" cx="33" cy="33" r="32"/></g></g><g class="cls-8"><g class="cls-5"><rect class="cls-9" x="12" y="14" width="42" height="38"/></g></g></svg>