<?xml version="1.0" encoding="UTF-8"?>
<svg xmlns="http://www.w3.org/2000/svg" viewBox="0 0 512 512">
  <!-- Rounded white background rectangle -->
  <rect width="512" height="512" fill="white" rx="40" ry="40"/>
  
  <!-- Main Utah shape with snow caps - centered and scaled -->
  <g transform="translate(56, 126) scale(1.65)">
    <path d="M.51,120.76c1.53-2.91,2.88-5.94,4.61-8.72,13.88-22.32,29.12-43.72,44.77-64.81,10.98-14.79,22.47-29.19,33.74-43.76.92-1.19,1.95-2.3,2.93-3.45.08,0,.16,0,.24,0,7.99,12.01,15.98,24.02,23.97,36.03,2.21,3.32,5.14,5.87,8.58,7.85,6.49,3.73,13,7.45,19.49,11.19,2.87,1.65,5.62,1.75,8.57,0,4.15-2.45,8.24-2.01,12.01,1.01,1.43,1.15,2.81,2.35,4.2,3.55,1.94,1.67,3.5,1.69,5.4-.01,4.37-3.91,8.69-7.88,13.09-11.75,2.71-2.38,3.66-2.27,5.72.71,8.21,11.87,16.28,23.85,24.58,35.65,7.43,10.56,15.7,20.44,25.19,29.25.15.14.36.25.41.42.29.9.55,1.81.81,2.71-.75-.23-1.58-.34-2.25-.71-10.57-5.84-21.11-11.71-32.38-17.97.23,1.21.17,2,.52,2.51,4.44,6.53,8.94,13.02,13.39,19.54.26.38.19.98.28,1.48-.54.05-1.22.33-1.61.11-9.91-5.55-19.78-11.15-29.66-16.75-.83-.47-1.65-.98-2.5-1.4-3.29-1.61-5.9-1.18-8.49,1.42-5.27,5.28-10.51,10.58-15.93,16.04-2.15-3.1-4.3-6.02-6.26-9.06-2.41-3.76-3.88-4.03-7.31-1.22-6.66,5.47-13.36,10.89-19.97,16.26-8.43-4.65-16.73-9.22-25.04-13.79-4.57-2.52-9.13-5.06-13.73-7.52-.54-.29-1.38-.35-1.97-.16-10.54,3.38-21.06,6.84-31.61,10.21-.61.19-1.51.09-2.06-.23-8.39-4.91-16.75-9.9-25.15-14.8-.47-.28-1.52-.18-1.94.17-7.88,6.44-15.7,12.94-23.55,19.42-.32.26-.75.38-1.13.57,0,0,.03.02.03.02ZM97.85,35.61c-3.71-6.48-7.33-12.83-11.05-19.34-7.88,10.64-15.66,21.14-23.42,31.62.33.42.62.78.9,1.14,7.58-5.62,15-11.12,22.54-16.71.21,4.14.42,8.05.62,11.96l.64.27c.92-1.61,1.97-3.16,2.72-4.84,1.67-3.75,2.91-4.57,7.05-4.1ZM183.06,67.98c4.44,2.04,8.88,4.08,14,6.43-.32-1.13-.32-1.88-.69-2.3-3.36-3.9-6.85-7.68-10.16-11.62-1.48-1.77-3.27-1.98-4.88-.93-3.45,2.24-6.68,4.82-10.08,7.32,4.07,3.54,7.92,6.89,12.15,10.56,1.5-3.4-.65-6.4-.34-9.47Z"/>
  </g>
</svg>
